<svg version="1.1" xmlns="http://www.w3.org/2000/svg" xmlns:xlink="http://www.w3.org/1999/xlink" width="48" height="48"><defs><linearGradient x1="12.23187" y1="12.23187" x2="66.17372" y2="66.17372" gradientUnits="userSpaceOnUse" id="color-1"><stop offset="0" stop-color="#000000" stop-opacity="0.2"></stop><stop offset="1" stop-color="#000000" stop-opacity="0"></stop></linearGradient><filter id="dropshadow-base"><feColorMatrix type="matrix" values="0 0 0 0 0  0 0 0 0 0  0 0 0 0 0  0 0 0 .8 0"></feColorMatrix> <feOffset dx="0" dy="1"></feOffset> <feGaussianBlur stdDeviation="1"></feGaussianBlur> <feComposite in="SourceGraphic"></feComposite></filter><filter id="dropshadow-banner" x="-10%" y="-10%" width="120%" height="130%"><feColorMatrix type="matrix" values="0 0 0 0 0  0 0 0 0 0  0 0 0 0 0  0 0 0 .4 0"></feColorMatrix> <feOffset dx="0" dy="1"></feOffset> <feGaussianBlur stdDeviation="0.5"></feGaussianBlur> <feComposite in="SourceGraphic"></feComposite></filter></defs><g fill="none" fill-rule="nonzero" stroke="none" stroke-width="none" stroke-linecap="butt" stroke-linejoin="miter" stroke-miterlimit="10" stroke-dasharray="" stroke-dashoffset="0" font-family="none" font-weight="none" font-size="none" text-anchor="none" style="mix-blend-mode: normal"><path d="M7,43c-1.10457,0 -2,-0.89543 -2,-2v-34c0,-1.10457 0.89543,-2 2,-2h34c1.10457,0 2,0.89543 2,2v34c0,1.10457 -0.89543,2 -2,2z" id="base 1 5 1 1 1" fill="#3642ff" stroke-width="1"></path><path d="M12.92325,31.54632c-0.42659,-0.42659 -0.69138,-1.015 -0.69138,-1.66225v-15.29857c0,-1.29449 1.05913,-2.35363 2.35363,-2.35363h7.06088l3.53044,3.53044h8.23769c0.64725,0 1.23565,0.26478 1.66225,0.69138l7.92325,7.92325v16.62307c0,1.10457 -0.89543,2 -2,2h-16.62307z" fill="url(#color-1)" stroke-width="1"></path><path d="M33.41451,15.76231h-10.73254l-1.0356,-3.53044h-7.06088c-1.29449,0 -2.35363,1.05913 -2.35363,2.35363v15.29857c0,1.29449 1.05913,2.35363 2.35363,2.35363h8.23769l1.17681,3.53044h9.41451c1.29449,0 2.35363,-1.05913 2.35363,-2.35363v-15.29857c0,-1.29449 -1.05913,-2.35363 -2.35363,-2.35363zM18.31011,27.04206c-2.65371,0 -4.80728,-2.15945 -4.80728,-4.80728c0,-2.64783 2.15945,-4.80728 4.80728,-4.80728c1.22389,0 2.33597,0.43542 3.21858,1.25331l0.07649,0.07649l-1.43571,1.38864l-0.07061,-0.06472c-0.33539,-0.31774 -0.91791,-0.68844 -1.78876,-0.68844c-1.54163,0 -2.79493,1.27684 -2.79493,2.84789c0,1.57105 1.25331,2.84789 2.79493,2.84789c1.61223,0 2.31244,-1.02971 2.50073,-1.71815h-2.60076v-1.82406h4.64841l0.01765,0.08238c0.04707,0.24713 0.06472,0.46484 0.06472,0.71197c-0.00588,2.7714 -1.90644,4.70137 -4.63076,4.70137zM25.41218,25.04148c0.39423,0.70609 0.87084,1.38276 1.40041,2.00058l-0.6296,0.62371zM26.31832,24.13533h-1.16505l-0.35893,-1.22389h4.70137c0,0 -0.40012,1.54751 -1.83583,3.21858c-0.6296,-0.72374 -1.06502,-1.42983 -1.34157,-1.9947zM34.59132,33.41451c0,0.64725 -0.52957,1.17681 -1.17681,1.17681h-8.23769l2.35363,-2.35363l-0.9591,-3.25389l1.08267,-1.08267l3.15974,3.15974l0.85907,-0.85907l-3.18328,-3.15974c1.05913,-1.218 1.8829,-2.64783 2.2536,-4.12473h1.49455v-1.22389h-4.27772v-1.22389h-1.22389v1.22389h-2.30655l-1.40041,-4.75433h10.38538c0.64725,0 1.17681,0.52957 1.17681,1.17681z" fill="none" stroke-width="0"></path><path d="M35.76813,18.11593v15.29857c0,1.29449 -1.05913,2.35363 -2.35363,2.35363h-9.41451l-1.17681,-3.53044h-8.23769c-1.29449,0 -2.35363,-1.05913 -2.35363,-2.35363v-15.29857c0,-1.29449 1.05913,-2.35363 2.35363,-2.35363h7.06088l1.0356,3.53044h10.73254c1.29449,0 2.35363,1.05913 2.35363,2.35363zM22.94087,22.34069c0,-0.24713 -0.01765,-0.46484 -0.06472,-0.71197l-0.01765,-0.08238h-4.64841v1.82406h2.60076c-0.18829,0.68844 -0.88849,1.71815 -2.50073,1.71815c-1.54163,0 -2.79493,-1.27684 -2.79493,-2.84789c0,-1.57105 1.25331,-2.84789 2.79493,-2.84789c0.87084,0 1.45336,0.3707 1.78876,0.68844l0.07061,0.06472l1.43571,-1.38864l-0.07649,-0.07649c-0.88261,-0.81789 -1.9947,-1.25331 -3.21858,-1.25331c-2.64783,0 -4.80728,2.15945 -4.80728,4.80728c0,2.64783 2.15357,4.80728 4.80728,4.80728c2.72432,0 4.62488,-1.92997 4.63076,-4.70137zM26.18299,27.66577l0.6296,-0.62371c-0.52957,-0.61783 -1.00618,-1.29449 -1.40041,-2.00058zM27.65989,26.13003c1.43571,-1.67107 1.83583,-3.21858 1.83583,-3.21858h-4.70137l0.35893,1.22389h1.16505c0.27655,0.56487 0.71197,1.27096 1.34157,1.9947zM34.59132,18.11593c0,-0.64725 -0.52957,-1.17681 -1.17681,-1.17681h-10.38538l1.40041,4.75433h2.30655v-1.22389h1.22389v1.22389h4.27772v1.22389h-1.49455c-0.3707,1.4769 -1.19447,2.90673 -2.2536,4.12473l3.18328,3.15974l-0.85907,0.85907l-3.15974,-3.15974l-1.08267,1.08267l0.9591,3.25389l-2.35363,2.35363h8.23769c0.64725,0 1.17681,-0.52957 1.17681,-1.17681z" fill="#e4ff6e" stroke-width="0"></path><path d="M2,24c0,-12.15026 9.84974,-22 22,-22c12.15026,0 22,9.84974 22,22c0,12.15026 -9.84974,22 -22,22c-12.15026,0 -22,-9.84974 -22,-22z" id="base 1 1 1" fill="none" stroke-width="1"></path><g fill="#000000" stroke-width="1" font-family="Roboto,sans-serif" font-weight="400" font-size="14" text-anchor="start"></g><rect x="2" y="2" width="44" height="22" fill="none" stroke-width="1"></rect><path d="M2,24v-22h44v22z" fill="none" stroke-width="1"></path><path d="M2,24v-22h44v22z" fill="none" stroke-width="1"></path><path d="M2,24v-22h44v22z" fill="none" stroke-width="1"></path><path d="M5,7c0,-1.10457 0.89543,-2 2,-2h34c1.10457,0 2,0.89543 2,2v17h-38z" id="base 1 2 1" fill-opacity="0.1" fill="#000000" stroke-width="1"></path><path d="M2,24v-22h44v22z" fill="none" stroke-width="1"></path></g></svg>