<svg version="1.1" xmlns="http://www.w3.org/2000/svg" xmlns:xlink="http://www.w3.org/1999/xlink" width="48" height="48"><defs><linearGradient x1="0.35507" y1="2.50461" x2="88.14299" y2="85.99345" gradientUnits="userSpaceOnUse" id="color-1"><stop offset="0" stop-color="#000000" stop-opacity="0"></stop><stop offset="1" stop-color="#000000" stop-opacity="0"></stop></linearGradient><filter id="dropshadow-base"><feColorMatrix type="matrix" values="0 0 0 0 0  0 0 0 0 0  0 0 0 0 0  0 0 0 .8 0"></feColorMatrix> <feOffset dx="0" dy="1"></feOffset> <feGaussianBlur stdDeviation="1"></feGaussianBlur> <feComposite in="SourceGraphic"></feComposite></filter><filter id="dropshadow-banner" x="-10%" y="-10%" width="120%" height="130%"><feColorMatrix type="matrix" values="0 0 0 0 0  0 0 0 0 0  0 0 0 0 0  0 0 0 .4 0"></feColorMatrix> <feOffset dx="0" dy="1"></feOffset> <feGaussianBlur stdDeviation="0.5"></feGaussianBlur> <feComposite in="SourceGraphic"></feComposite></filter></defs><g fill="none" fill-rule="nonzero" stroke="none" stroke-width="none" stroke-linecap="butt" stroke-linejoin="miter" stroke-miterlimit="10" stroke-dasharray="" stroke-dashoffset="0" font-family="none" font-weight="none" font-size="none" text-anchor="none" style="mix-blend-mode: normal"><path d="M2,24c0,-12.15026 9.84974,-22 22,-22c12.15026,0 22,9.84974 22,22c0,12.15026 -9.84974,22 -22,22c-12.15026,0 -22,-9.84974 -22,-22z" id="base 1 5" fill-opacity="0" fill="#ac2121" stroke-width="1"></path><path d="M19.70093,2.50461l4.29907,4.29907h10.74771l10.07373,10.07373c0.76398,2.23391 1.17857,4.62983 1.17857,7.12259c0,12.15026 -9.84974,22 -22,22c-8.18568,0 -15.3272,-4.47057 -19.11618,-11.10332l9.70057,-9.5861l-10.55411,-10.55411c1.4439,-3.11416 3.59481,-5.83378 6.24665,-7.95279h5.12493l0,-3.06008c1.24276,-0.52817 2.54409,-0.94532 3.89155,-1.239z" fill="url(#color-1)" stroke-width="1"></path><path d="M25.8701,30.60983l-5.45983,-5.39534l0.06449,-0.06449c3.7402,-4.17011 6.40563,-8.96358 7.97479,-14.03649h6.29815v-4.30983h-15.04677v-4.29908h-4.29908v4.29908h-15.04677v4.27758h24.01035c-1.45094,4.14861 -3.7187,8.08227 -6.81404,11.52153c-1.99907,-2.22477 -3.65422,-4.643 -4.96544,-7.20096h-4.29908c1.56916,3.50375 3.7187,6.81404 6.40563,9.8019l-10.93041,10.80143l3.0416,3.0416l10.7477,-10.7477l6.68507,6.68507zM37.972,19.70092h-4.29908l-9.67293,25.79447h4.29908l2.41823,-6.44862h10.21031l2.41823,6.44862h4.29908zM32.32946,34.7477l3.493,-9.31825l3.493,9.31825z" fill="none" stroke-width="0"></path><g fill="#000000" stroke-width="1"><path d="M25.8701,30.60983l-5.45983,-5.39534l0.06449,-0.06449c3.7402,-4.17011 6.40563,-8.96358 7.97479,-14.03649h6.29815v-4.30983h-15.04677v-4.29908h-4.29908v4.29908h-15.04677v4.27758h24.01035c-1.45094,4.14861 -3.7187,8.08227 -6.81404,11.52153c-1.99907,-2.22477 -3.65422,-4.643 -4.96544,-7.20096h-4.29908c1.56916,3.50375 3.7187,6.81404 6.40563,9.8019l-10.93041,10.80143l3.0416,3.0416l10.7477,-10.7477l6.68507,6.68507zM37.972,19.70092h-4.29908l-9.67293,25.79447h4.29908l2.41823,-6.44862h10.21031l2.41823,6.44862h4.29908zM32.32946,34.7477l3.493,-9.31825l3.493,9.31825z"></path></g><path d="M2,24c0,-12.15026 9.84974,-22 22,-22c12.15026,0 22,9.84974 22,22c0,12.15026 -9.84974,22 -22,22c-12.15026,0 -22,-9.84974 -22,-22z" id="base 1 1 1" fill="none" stroke-width="1"></path><g fill="#000000" stroke-width="1" font-family="Roboto,sans-serif" font-weight="400" font-size="14" text-anchor="start"></g><rect x="2" y="2" width="44" height="22" fill="none" stroke-width="1"></rect><path d="M2,24v-22h44v22z" fill="none" stroke-width="1"></path><path d="M2,24v-22h44v22z" fill="none" stroke-width="1"></path><path d="M2,24v-22h44v22z" fill="none" stroke-width="1"></path><path d="M2,24v-22h44v22z" fill="none" stroke-width="1"></path></g></svg>